<svg xmlns="http://www.w3.org/2000/svg" xmlns:xlink="http://www.w3.org/1999/xlink" id="Layer_1" viewBox="0 0 1252.88 478.74" style="enable-background:new 0 0 1252.88 478.74;"><style>.st0{fill:#2D2926;}
.st1{fill:#007399;}</style><g><path class="st0" d="M362.68 333.08c1.76 1.65 10.22 8.68 23.64 8.68 14.29.0 24.51-9.34 24.51-20.78.0-13.41-10.88-19.46-23.63-24.62-9.13-3.74-13.96-7.59-13.96-13.85.0-4.07 3.19-9.89 12.42-9.89 6.37.0 10.55 2.75 14.84 5.5 1.54.99 2.97.33 3.85-1.1l2.75-4.18c1.1-1.65.22-3.19-.66-3.74-1.1-.77-9.34-6.49-20.34-6.49-17.48.0-24.07 11.76-24.07 20.34.0 12.75 8.79 18.58 20.01 23.3 10.88 4.51 16.6 8.68 16.6 15.28.0 5.6-4.84 10.22-12.42 10.22-8.46.0-12.42-3.3-17.59-7.58-1.21-.99-2.86-.55-3.74.88l-2.86 4.51C360.81 331.43 361.69 332.2 362.68 333.08m67.94-30.78c0 21.99 17.7 39.46 39.68 39.46 9.78.0 19.24-3.41 26.71-10.66.77-.77.99-2.2.11-2.97l-5.06-4.95c-.66-.55-1.65-.66-2.64.11-5.28 4.07-10.88 7.25-18.91 7.25-15.72.0-27.7-13.08-27.7-28.47.0-15.39 11.87-28.58 27.59-28.58 6.82.0 13.85 2.86 19.02 7.36.99.99 1.98.99 2.75.0l4.84-4.95c.88-.88.88-2.2-.11-3.08-7.48-6.49-15.5-10.22-26.6-10.22C448.31 262.61 430.62 280.31 430.62 302.3m91.35 36.27c0 1.1.99 2.09 2.09 2.09h7.26c1.21.0 2.09-.99 2.09-2.09V306.8h40.23v31.77c0 1.1.88 2.09 2.09 2.09h7.26c1.1.0 2.09-.99 2.09-2.09V265.8c0-1.1-.99-2.09-2.09-2.09h-7.26c-1.21.0-2.09.99-2.09 2.09v30.67H533.4V265.8c0-1.1-.88-2.09-2.09-2.09h-7.26c-1.1.0-2.09.99-2.09 2.09v72.77zM608.04 302.3c0 21.99 17.48 39.46 39.46 39.46s39.57-17.48 39.57-39.46c0-21.98-17.59-39.68-39.57-39.68s-39.46 17.69-39.46 39.68m10.99.0c0-15.61 12.86-29.02 28.47-29.02 15.72.0 28.58 13.41 28.58 29.02.0 15.72-12.86 28.8-28.58 28.8-15.6.0-28.47-13.09-28.47-28.8m88.49.0c0 21.99 17.48 39.46 39.46 39.46 21.99.0 39.57-17.48 39.57-39.46.0-21.98-17.59-39.68-39.57-39.68C725 262.61 707.52 280.31 707.52 302.3m11 0c0-15.61 12.86-29.02 28.47-29.02 15.72.0 28.58 13.41 28.58 29.02.0 15.72-12.86 28.8-28.58 28.8-15.61.0-28.47-13.09-28.47-28.8m93.21 36.27c0 1.1.88 2.09 2.09 2.09h39.13c1.21.0 2.09-.99 2.09-2.09v-6.05c0-1.1-.88-2.09-2.09-2.09h-29.79V265.8c0-1.1-.99-2.09-2.09-2.09h-7.25c-1.21.0-2.09.99-2.09 2.09v72.77z"/><path class="st0" d="M379.39 214.59c.22.88 1.1 1.54 1.98 1.54h1.76c1.1.0 1.54-.55 1.87-1.21l19.46-49.8H405l19.68 49.8c.22.66.88 1.21 1.87 1.21h1.76c.88.0 1.76-.66 1.98-1.54l20.78-73.87c.44-1.54-.44-2.64-1.98-2.64h-10.11c-.88.0-1.76.77-1.98 1.54l-11.21 43.86h-.44l-17.59-45.29c-.22-.66-.77-1.21-1.87-1.21h-1.98c-1.1.0-1.65.55-1.87 1.21l-17.48 45.29h-.44l-11.43-43.86c-.22-.77-1.1-1.54-1.98-1.54H360.6c-1.54.0-2.42 1.1-1.98 2.64l20.77 73.87zm130.6-39.02c5.72-2.86 10.99-8.91 10.99-17.15.0-11.54-10.11-20.34-23.19-20.34h-25.18c-1.21.0-2.09.99-2.09 2.09v72.77c0 1.1.88 2.09 2.09 2.09h26.6c13.41.0 23.96-8.91 23.96-21.22.0-10.33-6.82-15.5-13.19-17.7V175.57zM484.7 170.4v-19.24h11.98c5.61.0 9.23 3.85 9.23 9.34s-3.63 9.89-9.23 9.89H484.7zm0 31.66V182.5h13.52c5.5.0 9.67 4.07 9.67 9.56.0 5.71-4.17 10-9.67 10H484.7zm85.53 14.07c15.5.0 25.28-10.44 25.28-21.77.0-14.18-12.31-20.55-22.97-24.84-8.91-3.63-12.97-7.15-12.97-12.31.0-4.18 3.41-7.7 9.68-7.7 6.05.0 10.55 3.08 15.28 6.05 1.32.88 2.97.0 3.85-1.32l4.18-6.27c.77-1.1.44-2.97-.66-3.63-2.2-1.65-10.77-7.36-21.99-7.36-17.48.0-24.73 11.32-24.73 21.1.0 12.97 10.33 19.57 20.67 23.75 9.23 3.74 13.96 7.59 13.96 13.19.0 4.73-4.29 8.46-10 8.46-7.14.0-12.09-3.41-16.6-6.82-.99-.77-2.86-.77-3.74.77l-3.96 6.82c-.99 1.76-.55 2.42.55 3.3C549.23 210.3 556.38 216.13 570.23 216.13m81.01-39.47c0 21.98 17.7 39.46 39.68 39.46 9.78.0 19.24-3.41 26.71-10.66.77-.77.99-2.2.11-2.97l-5.06-4.95c-.66-.55-1.65-.66-2.64.11-5.28 4.07-10.88 7.26-18.91 7.26-15.72.0-27.7-13.08-27.7-28.47.0-15.39 11.87-28.58 27.59-28.58 6.82.0 13.85 2.86 19.02 7.37.99.99 1.98.99 2.75.0l4.84-4.95c.88-.88.88-2.2-.11-3.08-7.48-6.49-15.5-10.22-26.6-10.22C668.94 136.98 651.24 154.68 651.24 176.66m84.98.0c0 21.98 17.48 39.46 39.46 39.46s39.57-17.48 39.57-39.46c0-21.99-17.59-39.68-39.57-39.68-21.99.0-39.46 17.7-39.46 39.68m10.99.0c0-15.61 12.86-29.02 28.47-29.02 15.72.0 28.58 13.41 28.58 29.02.0 15.72-12.86 28.8-28.58 28.8-15.61.0-28.47-13.08-28.47-28.8m91.02 36.28c0 1.1.88 2.09 1.98 2.09h25.29c21.21.0 38.59-17.26 38.59-38.59.0-21.11-17.37-38.37-38.59-38.37h-25.29c-1.1.0-1.98.99-1.98 2.09v72.78zM849.44 204.58v-56.06h14.84c16.16.0 27.59 11.76 27.59 27.92.0 16.27-11.43 28.14-27.59 28.14H849.44zM929.36 212.94c0 1.1.99 2.09 2.09 2.09h7.26c1.1.0 2.09-.99 2.09-2.09v-72.77c0-1.1-.99-2.09-2.09-2.09h-7.26c-1.1.0-2.09.99-2.09 2.09v72.77zm36.93.0c0 1.1.99 2.09 2.09 2.09h6.93c1.21.0 2.09-.99 2.09-2.09v-53.53h.22l46.28 55.18c1.32 1.54 2.09 1.54 3.19 1.54h.99c1.1.0 2.09-.88 2.09-1.98v-73.98c0-1.1-.99-2.09-2.09-2.09h-7.03c-1.21.0-2.09.99-2.09 2.09v52h-.22l-46.17-53.53c-1.43-1.65-2.2-1.65-3.3-1.65h-.88c-1.1.0-2.09.88-2.09 1.98v73.97zM1053.13 176.66c0 21.98 17.7 39.46 39.58 39.46 15.94.0 27.26-7.26 27.26-7.26.44-.33.88-1.21.88-1.76v-26.6c0-1.1-.88-2.09-1.98-2.09h-20.12c-1.21.0-2.09.88-2.09 2.09v6.38c0 1.1.88 1.98 2.09 1.98h10.77v12.31c-1.1.44-7.36 3.74-16.49 3.74-15.61.0-27.59-13.19-27.59-28.47.0-15.39 11.98-28.58 27.59-28.58 6.71.0 13.52 2.97 18.69 7.48 1.1.99 1.98 1.1 2.86.11 1.65-1.76 3.3-3.41 4.95-5.17.88-.88.77-2.2-.11-3.08-7.48-6.38-16.16-10.22-26.71-10.22C1070.83 136.98 1053.13 154.68 1053.13 176.66"/></g><g><path class="st1" d="M227.12 153.25c-9.89.0-18.04 8.17-18.04 17.67.0 9.57 8.15 17.54 18.04 17.54 9.96.0 18.11-7.97 18.11-17.54C245.23 161.42 237.08 153.25 227.12 153.25z"/><path class="st1" d="M165.86 220.86h-9.4V255h9.4c10.24.0 17.49-7.23 17.49-17.14C183.34 228.02 176.1 220.86 165.86 220.86z"/><path class="st1" d="M290.25 105.83H108.42c-1.63.0-2.96 1.32-2.96 2.96v261.17c0 1.64 1.32 2.96 2.96 2.96h181.83c1.64.0 2.96-1.32 2.96-2.96V108.78C293.21 107.15 291.89 105.83 290.25 105.83zM172.01 146.76c7.03.0 12.12 2.28 16.86 6.22.63.54.63 1.34.07 1.87l-3.06 3.01c-.49.6-1.11.6-1.74.0-3.27-2.74-7.73-4.49-12.05-4.49-9.96.0-17.48 8.03-17.48 17.4s7.59 17.34 17.56 17.34c5.09.0 8.64-1.94 11.98-4.42.63-.47 1.25-.4 1.67-.07l3.21 3.01c.56.47.42 1.34-.07 1.81-4.74 4.42-10.73 6.49-16.93 6.49-13.93.0-25.15-10.65-25.15-24.03C146.86 157.54 158.08 146.76 172.01 146.76zm17.81 184.01c0 .67-.63 1.2-1.32 1.2h-.63c-.7.0-1.19.0-2.02-.93l-29.33-33.6h-.14v32.6c0 .67-.56 1.27-1.32 1.27h-4.39c-.7.0-1.32-.6-1.32-1.27v-45.05c0-.67.63-1.2 1.32-1.2h.56c.7.0 1.19.0 2.09 1l29.26 32.6h.14v-31.66c0-.67.56-1.27 1.32-1.27h4.46c.7.0 1.32.6 1.32 1.27v45.04zm-23.2-69.41H150.6c-.7.0-1.25-.6-1.25-1.27v-44.31c0-.67.56-1.27 1.25-1.27h16.02c13.44.0 24.45 10.51 24.45 23.36C191.08 250.85 180.07 261.36 166.62 261.36zm82.71 65.13c0 .34-.28.87-.56 1.07.0.0-7.18 4.42-17.28 4.42-13.86.0-25.08-10.65-25.08-24.03.0-13.39 11.22-24.16 25.08-24.16 6.69.0 12.19 2.34 16.93 6.22.56.54.63 1.34.07 1.87-1.04 1.07-2.09 2.08-3.13 3.15-.56.6-1.11.54-1.81-.07-3.27-2.74-7.59-4.55-11.84-4.55-9.89.0-17.48 8.03-17.48 17.4.0 9.3 7.59 17.34 17.48 17.34 5.78.0 9.75-2.01 10.45-2.28v-7.5h-6.83c-.77.0-1.32-.54-1.32-1.21v-3.88c0-.74.56-1.27 1.32-1.27h12.75c.7.0 1.25.6 1.25 1.27v16.21zM250.84 220.12l-42.51 40.74c-.69.66-1.57.99-2.46.99-.93.0-1.87-.37-2.56-1.09-1.36-1.42-1.31-3.66.1-5.02L245.93 215c1.42-1.35 3.66-1.31 5.02.11C252.3 216.52 252.25 218.77 250.84 220.12zm-23.72-25.16c-13.93.0-25.01-10.65-25.01-24.03.0-13.39 11.08-24.16 25.01-24.16 13.93.0 25.08 10.78 25.08 24.16s-11.15 24.03-25.08 24.03z"/></g><g/><g/><g/><g/><g/><g/></svg>